<?xml version="1.0" encoding="UTF-8"?>
<!-- Generated by Pixelmator Pro 3.1.1 -->
<svg width="1537" height="1355" viewBox="0 0 1537 1355" xmlns="http://www.w3.org/2000/svg" xmlns:xlink="http://www.w3.org/1999/xlink">
    <g id="Group">
        <path id="Line" fill="none" stroke="#d5d5d5" stroke-width="3" stroke-linecap="round" stroke-linejoin="round" d="M 127 252 L 500 419"/>
        <path id="Line-copy" fill="none" stroke="#d5d5d5" stroke-width="3" stroke-linecap="round" stroke-linejoin="round" d="M 131.678879 261.672119 L 125.004753 1142"/>
        <path id="Line-copy-3" fill="none" stroke="#d5d5d5" stroke-width="3" stroke-linecap="round" stroke-linejoin="round" d="M 501.998047 463 L 502.000427 973"/>
        <path id="Line-copy-4" fill="none" stroke="#d5d5d5" stroke-width="3" stroke-linecap="round" stroke-linejoin="round" d="M 547.00177 996.000977 L 967.000183 825.999329"/>
        <path id="Line-copy-5" fill="none" stroke="#d5d5d5" stroke-width="3" stroke-linecap="round" stroke-linejoin="round" d="M 934.998901 1227.00061 L 547 1028.004028"/>
        <path id="Line-copy-6" fill="none" stroke="#d5d5d5" stroke-width="3" stroke-linecap="round" stroke-linejoin="round" d="M 934.998901 1227.00061 L 1371.998291 1027.98938"/>
        <path id="Line-copy-17" fill="none" stroke="#d5d5d5" stroke-width="3" stroke-linecap="round" stroke-linejoin="round" d="M 989.999878 310.001099 L 1439 473.007202"/>
        <path id="Line-copy-18" fill="none" stroke="#d5d5d5" stroke-width="3" stroke-linecap="round" stroke-linejoin="round" d="M 989.999878 310.001099 L 591.99884 141.00293"/>
        <path id="Line-copy-7" fill="none" stroke="#d5d5d5" stroke-width="3" stroke-linecap="round" stroke-linejoin="round" d="M 966.999939 830.000061 L 1371.998291 1027.98938"/>
    </g>
    <g id="Boxes">
        <g id="Box">
            <path id="Rectangle-copy-5" fill="#0a3140" fill-rule="evenodd" stroke="#ffffff" stroke-linecap="round" stroke-linejoin="round" d="M 869 341 L 980 304 L 980 154 L 869 191 Z"/>
            <path id="Rectangle-copy-2" fill="none" stroke="#ffffff" stroke-linecap="round" stroke-linejoin="round" d="M 869 341 L 975 386 L 975 236 L 869 191 Z"/>
            <path id="Rectangle-copy-3" fill="#0a3140" fill-rule="evenodd" stroke="#ffffff" stroke-linecap="round" stroke-linejoin="round" d="M 975 386 L 1086 345 L 980 304 L 869 341 Z"/>
            <path id="Rectangle" fill="#187498" fill-rule="evenodd" stroke="#ffffff" stroke-linecap="round" stroke-linejoin="round" d="M 975 386 L 1086 345 L 1086 195 L 975 236 Z"/>
            <path id="Rectangle-copy-4" fill="#187498" fill-rule="evenodd" stroke="#ffffff" stroke-linecap="round" stroke-linejoin="round" d="M 975 236 L 1086 195 L 980 154 L 869 191 Z"/>
            <path id="Rectangle-copy" fill="#187498" fill-rule="evenodd" stroke="#ffffff" stroke-linecap="round" stroke-linejoin="round" d="M 832 355 L 938 400 L 938 250 L 832 205 Z"/>
        </g>
        <g id="Box-copy">
            <path id="path1" fill="#0a3140" fill-rule="evenodd" stroke="#ffffff" stroke-linecap="round" stroke-linejoin="round" d="M 1320 512 L 1431 475 L 1431 325 L 1320 362 Z"/>
            <path id="path2" fill="none" stroke="#ffffff" stroke-linecap="round" stroke-linejoin="round" d="M 1320 512 L 1426 557 L 1426 407 L 1320 362 Z"/>
            <path id="path3" fill="#0a3140" fill-rule="evenodd" stroke="#ffffff" stroke-linecap="round" stroke-linejoin="round" d="M 1426 557 L 1537 516 L 1431 475 L 1320 512 Z"/>
            <path id="path4" fill="#187498" fill-rule="evenodd" stroke="#ffffff" stroke-linecap="round" stroke-linejoin="round" d="M 1426 557 L 1537 516 L 1537 366 L 1426 407 Z"/>
            <path id="path5" fill="#187498" fill-rule="evenodd" stroke="#ffffff" stroke-linecap="round" stroke-linejoin="round" d="M 1426 407 L 1537 366 L 1431 325 L 1320 362 Z"/>
            <path id="path6" fill="#187498" fill-rule="evenodd" stroke="#ffffff" stroke-linecap="round" stroke-linejoin="round" d="M 1283 526 L 1389 571 L 1389 421 L 1283 376 Z"/>
        </g>
        <g id="Box-copy-2">
            <path id="path7" fill="#0a3140" fill-rule="evenodd" stroke="#ffffff" stroke-linecap="round" stroke-linejoin="round" d="M 484 187 L 595 150 L 595 0 L 484 37 Z"/>
            <path id="path8" fill="none" stroke="#ffffff" stroke-linecap="round" stroke-linejoin="round" d="M 484 187 L 590 232 L 590 82 L 484 37 Z"/>
            <path id="path9" fill="#0a3140" fill-rule="evenodd" stroke="#ffffff" stroke-linecap="round" stroke-linejoin="round" d="M 590 232 L 701 191 L 595 150 L 484 187 Z"/>
            <path id="path10" fill="#187498" fill-rule="evenodd" stroke="#ffffff" stroke-linecap="round" stroke-linejoin="round" d="M 590 232 L 701 191 L 701 41 L 590 82 Z"/>
            <path id="path11" fill="#187498" fill-rule="evenodd" stroke="#ffffff" stroke-linecap="round" stroke-linejoin="round" d="M 590 82 L 701 41 L 595 0 L 484 37 Z"/>
            <path id="path12" fill="#187498" fill-rule="evenodd" stroke="#ffffff" stroke-linecap="round" stroke-linejoin="round" d="M 447 201 L 553 246 L 553 96 L 447 51 Z"/>
        </g>
        <g id="Box-copy-3">
            <path id="path13" fill="#0a3140" fill-rule="evenodd" stroke="#ffffff" stroke-linecap="round" stroke-linejoin="round" d="M 869 869 L 980 832 L 980 682 L 869 719 Z"/>
            <path id="path14" fill="none" stroke="#ffffff" stroke-linecap="round" stroke-linejoin="round" d="M 869 869 L 975 914 L 975 764 L 869 719 Z"/>
            <path id="path15" fill="#0a3140" fill-rule="evenodd" stroke="#ffffff" stroke-linecap="round" stroke-linejoin="round" d="M 975 914 L 1086 873 L 980 832 L 869 869 Z"/>
            <path id="path16" fill="#187498" fill-rule="evenodd" stroke="#ffffff" stroke-linecap="round" stroke-linejoin="round" d="M 975 914 L 1086 873 L 1086 723 L 975 764 Z"/>
            <path id="path17" fill="#187498" fill-rule="evenodd" stroke="#ffffff" stroke-linecap="round" stroke-linejoin="round" d="M 975 764 L 1086 723 L 980 682 L 869 719 Z"/>
            <path id="path18" fill="#187498" fill-rule="evenodd" stroke="#ffffff" stroke-linecap="round" stroke-linejoin="round" d="M 832 883 L 938 928 L 938 778 L 832 733 Z"/>
        </g>
        <g id="Box-copy-9">
            <path id="path19" fill="#0a3140" fill-rule="evenodd" stroke="#ffffff" stroke-linecap="round" stroke-linejoin="round" d="M 1320 1086 L 1431 1049 L 1431 899 L 1320 936 Z"/>
            <path id="path20" fill="none" stroke="#ffffff" stroke-linecap="round" stroke-linejoin="round" d="M 1320 1086 L 1426 1131 L 1426 981 L 1320 936 Z"/>
            <path id="path21" fill="#0a3140" fill-rule="evenodd" stroke="#ffffff" stroke-linecap="round" stroke-linejoin="round" d="M 1426 1131 L 1537 1090 L 1431 1049 L 1320 1086 Z"/>
            <path id="path22" fill="#187498" fill-rule="evenodd" stroke="#ffffff" stroke-linecap="round" stroke-linejoin="round" d="M 1426 1131 L 1537 1090 L 1537 940 L 1426 981 Z"/>
            <path id="path23" fill="#187498" fill-rule="evenodd" stroke="#ffffff" stroke-linecap="round" stroke-linejoin="round" d="M 1426 981 L 1537 940 L 1431 899 L 1320 936 Z"/>
            <path id="path24" fill="#187498" fill-rule="evenodd" stroke="#ffffff" stroke-linecap="round" stroke-linejoin="round" d="M 1283 1100 L 1389 1145 L 1389 995 L 1283 950 Z"/>
        </g>
        <g id="Box-copy-10">
            <path id="path25" fill="#0a3140" fill-rule="evenodd" stroke="#ffffff" stroke-linecap="round" stroke-linejoin="round" d="M 827 1296 L 938 1259 L 938 1109 L 827 1146 Z"/>
            <path id="path26" fill="none" stroke="#ffffff" stroke-linecap="round" stroke-linejoin="round" d="M 827 1296 L 933 1341 L 933 1191 L 827 1146 Z"/>
            <path id="path27" fill="#0a3140" fill-rule="evenodd" stroke="#ffffff" stroke-linecap="round" stroke-linejoin="round" d="M 933 1341 L 1044 1300 L 938 1259 L 827 1296 Z"/>
            <path id="path28" fill="#187498" fill-rule="evenodd" stroke="#ffffff" stroke-linecap="round" stroke-linejoin="round" d="M 933 1341 L 1044 1300 L 1044 1150 L 933 1191 Z"/>
            <path id="path29" fill="#187498" fill-rule="evenodd" stroke="#ffffff" stroke-linecap="round" stroke-linejoin="round" d="M 933 1191 L 1044 1150 L 938 1109 L 827 1146 Z"/>
            <path id="path30" fill="#187498" fill-rule="evenodd" stroke="#ffffff" stroke-linecap="round" stroke-linejoin="round" d="M 790 1310 L 896 1355 L 896 1205 L 790 1160 Z"/>
        </g>
        <g id="Box-copy-11">
            <path id="path31" fill="#0a3140" fill-rule="evenodd" stroke="#ffffff" stroke-linecap="round" stroke-linejoin="round" d="M 424 1045 L 535 1008 L 535 858 L 424 895 Z"/>
            <path id="path32" fill="none" stroke="#ffffff" stroke-linecap="round" stroke-linejoin="round" d="M 424 1045 L 530 1090 L 530 940 L 424 895 Z"/>
            <path id="path33" fill="#0a3140" fill-rule="evenodd" stroke="#ffffff" stroke-linecap="round" stroke-linejoin="round" d="M 530 1090 L 641 1049 L 535 1008 L 424 1045 Z"/>
            <path id="path34" fill="#187498" fill-rule="evenodd" stroke="#ffffff" stroke-linecap="round" stroke-linejoin="round" d="M 530 1090 L 641 1049 L 641 899 L 530 940 Z"/>
            <path id="path35" fill="#187498" fill-rule="evenodd" stroke="#ffffff" stroke-linecap="round" stroke-linejoin="round" d="M 530 940 L 641 899 L 535 858 L 424 895 Z"/>
            <path id="path36" fill="#187498" fill-rule="evenodd" stroke="#ffffff" stroke-linecap="round" stroke-linejoin="round" d="M 387 1059 L 493 1104 L 493 954 L 387 909 Z"/>
        </g>
        <g id="Box-copy-14">
            <path id="path37" fill="#0a3140" fill-rule="evenodd" stroke="#ffffff" stroke-linecap="round" stroke-linejoin="round" d="M 403 489 L 514 452 L 514 302 L 403 339 Z"/>
            <path id="path38" fill="none" stroke="#ffffff" stroke-linecap="round" stroke-linejoin="round" d="M 403 489 L 509 534 L 509 384 L 403 339 Z"/>
            <path id="path39" fill="#0a3140" fill-rule="evenodd" stroke="#ffffff" stroke-linecap="round" stroke-linejoin="round" d="M 509 534 L 620 493 L 514 452 L 403 489 Z"/>
            <path id="path40" fill="#187498" fill-rule="evenodd" stroke="#ffffff" stroke-linecap="round" stroke-linejoin="round" d="M 509 534 L 620 493 L 620 343 L 509 384 Z"/>
            <path id="path41" fill="#187498" fill-rule="evenodd" stroke="#ffffff" stroke-linecap="round" stroke-linejoin="round" d="M 509 384 L 620 343 L 514 302 L 403 339 Z"/>
            <path id="path42" fill="#187498" fill-rule="evenodd" stroke="#ffffff" stroke-linecap="round" stroke-linejoin="round" d="M 366 503 L 472 548 L 472 398 L 366 353 Z"/>
        </g>
        <g id="Box-copy-15">
            <path id="path43" fill="#0a3140" fill-rule="evenodd" stroke="#ffffff" stroke-linecap="round" stroke-linejoin="round" d="M 37 310 L 148 273 L 148 123 L 37 160 Z"/>
            <path id="path44" fill="none" stroke="#ffffff" stroke-linecap="round" stroke-linejoin="round" d="M 37 310 L 143 355 L 143 205 L 37 160 Z"/>
            <path id="path45" fill="#0a3140" fill-rule="evenodd" stroke="#ffffff" stroke-linecap="round" stroke-linejoin="round" d="M 143 355 L 254 314 L 148 273 L 37 310 Z"/>
            <path id="path46" fill="#187498" fill-rule="evenodd" stroke="#ffffff" stroke-linecap="round" stroke-linejoin="round" d="M 143 355 L 254 314 L 254 164 L 143 205 Z"/>
            <path id="path47" fill="#187498" fill-rule="evenodd" stroke="#ffffff" stroke-linecap="round" stroke-linejoin="round" d="M 143 205 L 254 164 L 148 123 L 37 160 Z"/>
            <path id="path48" fill="#187498" fill-rule="evenodd" stroke="#ffffff" stroke-linecap="round" stroke-linejoin="round" d="M 0 324 L 106 369 L 106 219 L 0 174 Z"/>
        </g>
        <g id="Box-copy-16">
            <path id="path49" fill="#0a3140" fill-rule="evenodd" stroke="#ffffff" stroke-linecap="round" stroke-linejoin="round" d="M 37 1202 L 148 1165 L 148 1015 L 37 1052 Z"/>
            <path id="path50" fill="none" stroke="#ffffff" stroke-linecap="round" stroke-linejoin="round" d="M 37 1202 L 143 1247 L 143 1097 L 37 1052 Z"/>
            <path id="path51" fill="#0a3140" fill-rule="evenodd" stroke="#ffffff" stroke-linecap="round" stroke-linejoin="round" d="M 143 1247 L 254 1206 L 148 1165 L 37 1202 Z"/>
            <path id="path52" fill="#187498" fill-rule="evenodd" stroke="#ffffff" stroke-linecap="round" stroke-linejoin="round" d="M 143 1247 L 254 1206 L 254 1056 L 143 1097 Z"/>
            <path id="path53" fill="#187498" fill-rule="evenodd" stroke="#ffffff" stroke-linecap="round" stroke-linejoin="round" d="M 143 1097 L 254 1056 L 148 1015 L 37 1052 Z"/>
            <path id="path54" fill="#187498" fill-rule="evenodd" stroke="#ffffff" stroke-linecap="round" stroke-linejoin="round" d="M 0 1216 L 106 1261 L 106 1111 L 0 1066 Z"/>
        </g>
    </g>
</svg>
